<svg width="3172" height="490" viewBox="0 0 3172 490" fill="none" xmlns="http://www.w3.org/2000/svg">
<mask id="mask0_1_231" style="mask-type:luminance" maskUnits="userSpaceOnUse" x="110" y="0" width="290" height="289">
<path d="M399.604 144.627C399.604 224.347 334.995 288.96 255.283 288.96C175.571 288.96 110.961 224.347 110.961 144.627C110.961 64.9334 175.571 0.306702 255.283 0.306702C259.417 0.306702 263.521 0.493378 267.567 0.840057C205.541 6.46671 157.012 57.3734 157.012 119.307C157.012 185.027 211.639 238.307 279.039 238.307C339.72 238.307 390.065 195.093 399.471 138.507C399.559 140.52 399.604 142.573 399.604 144.627Z" fill="white"/>
</mask>
<g mask="url(#mask0_1_231)">
<path d="M399.604 144.627C399.604 224.347 334.995 288.96 255.283 288.96C175.571 288.96 110.961 224.347 110.961 144.627C110.961 64.9334 175.571 0.306702 255.283 0.306702C259.417 0.306702 263.521 0.493378 267.567 0.840057C205.541 6.46671 157.012 57.3734 157.012 119.307C157.012 185.027 211.639 238.307 279.039 238.307C339.72 238.307 390.065 195.093 399.471 138.507C399.559 140.52 399.604 142.573 399.604 144.627Z" fill="url(#paint0_linear_1_231)"/>
</g>
<mask id="mask1_1_231" style="mask-type:luminance" maskUnits="userSpaceOnUse" x="0" y="30" width="473" height="460">
<path d="M472.923 250.067C472.923 382.173 367.048 489.293 236.459 489.293C105.868 489.293 0.00805664 382.173 0.00805664 250.067C0.00805664 212.227 8.69071 176.453 24.1334 144.64C20.2654 214.253 59.656 255.8 59.656 255.8C13.4294 108.32 138.351 32.7868 141.657 30.8268C141.687 30.8135 141.701 30.8001 141.716 30.8001C110.416 60.8134 90.9267 103.053 90.9267 149.827C90.9267 240.88 164.733 314.68 255.785 314.68C346.851 314.68 420.657 240.88 420.657 149.827C420.657 126.653 415.873 104.587 407.237 84.5869C447.912 127.56 472.923 185.853 472.923 250.067Z" fill="white"/>
</mask>
<g mask="url(#mask1_1_231)">
<path d="M472.923 250.067C472.923 382.173 367.048 489.293 236.459 489.293C105.868 489.293 0.00805664 382.173 0.00805664 250.067C0.00805664 212.227 8.69071 176.453 24.1334 144.64C20.2654 214.253 59.656 255.8 59.656 255.8C13.4294 108.32 138.351 32.7868 141.657 30.8268C141.687 30.8135 141.701 30.8001 141.716 30.8001C110.416 60.8134 90.9267 103.053 90.9267 149.827C90.9267 240.88 164.733 314.68 255.785 314.68C346.851 314.68 420.657 240.88 420.657 149.827C420.657 126.653 415.873 104.587 407.237 84.5869C447.912 127.56 472.923 185.853 472.923 250.067Z" fill="url(#paint1_linear_1_231)"/>
</g>
<mask id="mask2_1_231" style="mask-type:luminance" maskUnits="userSpaceOnUse" x="200" y="87" width="186" height="131">
<path d="M385.4 122.693C385.4 174.893 341.845 217.213 288.133 217.213C249.555 217.213 216.231 195.387 200.492 163.747C223.509 178.36 254.721 184.427 287.069 178.24C339.572 168.187 377.339 129.213 378.328 87.2668C382.889 98.2134 385.4 110.173 385.4 122.693Z" fill="white"/>
</mask>
<g mask="url(#mask2_1_231)">
<path d="M385.4 122.693C385.4 174.893 341.845 217.213 288.133 217.213C249.555 217.213 216.231 195.387 200.492 163.747C223.509 178.36 254.721 184.427 287.069 178.24C339.572 168.187 377.339 129.213 378.328 87.2668C382.889 98.2134 385.4 110.173 385.4 122.693Z" fill="url(#paint2_linear_1_231)"/>
</g>
<mask id="mask3_1_231" style="mask-type:luminance" maskUnits="userSpaceOnUse" x="696" y="94" width="221" height="332">
<path d="M696 107.202V412.811C696 416.283 697.143 419.657 699.141 422.114C701.136 424.571 703.899 425.98 706.725 425.98H905.54C911.464 425.98 916.267 420.083 916.267 412.811C916.267 405.505 911.464 399.609 905.54 399.609H717.451V107.202C717.451 99.9296 712.65 94 706.725 94C700.801 94 696 99.9296 696 107.202Z" fill="white"/>
</mask>
<g mask="url(#mask3_1_231)">
<path d="M696 107.202V412.811C696 416.283 697.143 419.657 699.141 422.114C701.136 424.571 703.899 425.98 706.725 425.98H905.54C911.464 425.98 916.267 420.083 916.267 412.811C916.267 405.505 911.464 399.609 905.54 399.609H717.451V107.202C717.451 99.9296 712.65 94 706.725 94C700.801 94 696 99.9296 696 107.202Z" fill="url(#paint3_linear_1_231)"/>
</g>
<mask id="mask4_1_231" style="mask-type:luminance" maskUnits="userSpaceOnUse" x="1176" y="94" width="22" height="332">
<path d="M1176.47 107.202V412.811C1176.47 420.083 1181.27 425.98 1187.19 425.98C1193.12 425.98 1197.92 420.083 1197.92 412.811V107.202C1197.92 99.9296 1193.12 94 1187.19 94C1181.27 94 1176.47 99.9296 1176.47 107.202Z" fill="white"/>
</mask>
<g mask="url(#mask4_1_231)">
<path d="M1176.47 107.202V412.811C1176.47 420.083 1181.27 425.98 1187.19 425.98C1193.12 425.98 1197.92 420.083 1197.92 412.811V107.202C1197.92 99.9296 1193.12 94 1187.19 94C1181.27 94 1176.47 99.9296 1176.47 107.202Z" fill="url(#paint4_linear_1_231)"/>
</g>
<mask id="mask5_1_231" style="mask-type:luminance" maskUnits="userSpaceOnUse" x="2409" y="94" width="280" height="332">
<path d="M2688.78 412.811V107.202C2688.78 101.83 2686.12 96.9812 2682.07 94.9501C2678.02 92.9518 2673.36 94.1967 2670.32 98.0623L2549.03 253.307L2427.71 98.0623C2424.7 94.1967 2420.03 92.9518 2415.98 94.9501C2411.91 96.9812 2409.24 101.83 2409.24 107.202V412.811C2409.24 420.083 2414.07 425.98 2419.98 425.98C2425.89 425.98 2430.72 420.083 2430.72 412.811V139.961L2541.3 281.48C2543.3 284.068 2546.12 285.542 2549.03 285.542C2551.93 285.542 2554.75 284.068 2556.75 281.48L2667.34 139.961V412.811C2667.34 420.083 2672.13 425.98 2678.05 425.98C2683.99 425.98 2688.78 420.083 2688.78 412.811Z" fill="white"/>
</mask>
<g mask="url(#mask5_1_231)">
<path d="M2688.78 412.811V107.202C2688.78 101.83 2686.12 96.9812 2682.07 94.9501C2678.02 92.9518 2673.36 94.1967 2670.32 98.0623L2549.03 253.307L2427.71 98.0623C2424.7 94.1967 2420.03 92.9518 2415.98 94.9501C2411.91 96.9812 2409.24 101.83 2409.24 107.202V412.811C2409.24 420.083 2414.07 425.98 2419.98 425.98C2425.89 425.98 2430.72 420.083 2430.72 412.811V139.961L2541.3 281.48C2543.3 284.068 2546.12 285.542 2549.03 285.542C2551.93 285.542 2554.75 284.068 2556.75 281.48L2667.34 139.961V412.811C2667.34 420.083 2672.13 425.98 2678.05 425.98C2683.99 425.98 2688.78 420.083 2688.78 412.811Z" fill="url(#paint5_linear_1_231)"/>
</g>
<mask id="mask6_1_231" style="mask-type:luminance" maskUnits="userSpaceOnUse" x="1458" y="94" width="22" height="332">
<path d="M1458.13 107.202V412.811C1458.13 420.083 1462.93 425.98 1468.84 425.98C1474.78 425.98 1479.58 420.083 1479.58 412.811V107.202C1479.58 99.9296 1474.78 94 1468.84 94C1462.93 94 1458.13 99.9296 1458.13 107.202Z" fill="white"/>
</mask>
<g mask="url(#mask6_1_231)">
<path d="M1458.13 107.202V412.811C1458.13 420.083 1462.93 425.98 1468.84 425.98C1474.78 425.98 1479.58 420.083 1479.58 412.811V107.202C1479.58 99.9296 1474.78 94 1468.84 94C1462.93 94 1458.13 99.9296 1458.13 107.202Z" fill="url(#paint6_linear_1_231)"/>
</g>
<mask id="mask7_1_231" style="mask-type:luminance" maskUnits="userSpaceOnUse" x="1648" y="94" width="22" height="332">
<path d="M1648.02 107.202V412.811C1648.02 420.083 1652.82 425.98 1658.73 425.98C1664.67 425.98 1669.47 420.083 1669.47 412.811V107.202C1669.47 99.9296 1664.67 94 1658.73 94C1652.82 94 1648.02 99.9296 1648.02 107.202Z" fill="white"/>
</mask>
<g mask="url(#mask7_1_231)">
<path d="M1648.02 107.202V412.811C1648.02 420.083 1652.82 425.98 1658.73 425.98C1664.67 425.98 1669.47 420.083 1669.47 412.811V107.202C1669.47 99.9296 1664.67 94 1658.73 94C1652.82 94 1648.02 99.9296 1648.02 107.202Z" fill="url(#paint7_linear_1_231)"/>
</g>
<mask id="mask8_1_231" style="mask-type:luminance" maskUnits="userSpaceOnUse" x="1458" y="94" width="212" height="332">
<path d="M1460.32 115.195L1650.21 420.804C1653.83 426.602 1660.54 427.716 1665.26 423.293C1669.98 418.871 1670.85 410.583 1667.26 404.785L1477.37 99.176C1473.77 93.4104 1467.06 92.2966 1462.34 96.7191C1457.63 101.142 1456.72 109.429 1460.32 115.195Z" fill="white"/>
</mask>
<g mask="url(#mask8_1_231)">
<path d="M1460.32 115.195L1650.21 420.804C1653.83 426.602 1660.54 427.716 1665.26 423.293C1669.98 418.871 1670.85 410.583 1667.26 404.785L1477.37 99.176C1473.77 93.4104 1467.06 92.2966 1462.34 96.7191C1457.63 101.142 1456.72 109.429 1460.32 115.195Z" fill="url(#paint8_linear_1_231)"/>
</g>
<mask id="mask9_1_231" style="mask-type:luminance" maskUnits="userSpaceOnUse" x="1929" y="94" width="23" height="332">
<path d="M1929.67 107.268V412.549C1929.67 419.821 1934.49 425.718 1940.4 425.718C1946.32 425.718 1951.14 419.821 1951.14 412.549V107.268C1951.14 99.9623 1946.32 94.0658 1940.4 94.0658C1934.49 94.0658 1929.67 99.9623 1929.67 107.268Z" fill="white"/>
</mask>
<g mask="url(#mask9_1_231)">
<path d="M1929.67 107.268V412.549C1929.67 419.821 1934.49 425.718 1940.4 425.718C1946.32 425.718 1951.14 419.821 1951.14 412.549V107.268C1951.14 99.9623 1946.32 94.0658 1940.4 94.0658C1934.49 94.0658 1929.67 99.9623 1929.67 107.268Z" fill="url(#paint9_linear_1_231)"/>
</g>
<mask id="mask10_1_231" style="mask-type:luminance" maskUnits="userSpaceOnUse" x="1929" y="102" width="219" height="178">
<path d="M1946.08 277.254L2142.07 126.628C2147.08 122.763 2148.62 114.638 2145.48 108.447C2142.34 102.288 2135.73 100.388 2130.69 104.254L1934.73 254.88C1929.69 258.745 1928.17 266.869 1931.32 273.061C1934.43 279.252 1941.07 281.12 1946.08 277.254Z" fill="white"/>
</mask>
<g mask="url(#mask10_1_231)">
<path d="M1946.08 277.254L2142.07 126.628C2147.08 122.763 2148.62 114.638 2145.48 108.447C2142.34 102.288 2135.73 100.388 2130.69 104.254L1934.73 254.88C1929.69 258.745 1928.17 266.869 1931.32 273.061C1934.43 279.252 1941.07 281.12 1946.08 277.254Z" fill="url(#paint10_linear_1_231)"/>
</g>
<mask id="mask11_1_231" style="mask-type:luminance" maskUnits="userSpaceOnUse" x="1929" y="252" width="221" height="174">
<path d="M1934.86 277.352L2132.8 424.08C2137.86 427.847 2144.47 425.849 2147.5 419.592C2150.57 413.368 2148.94 405.276 2143.85 401.509L1945.94 254.782C1940.85 251.014 1934.27 253.012 1931.21 259.269C1928.15 265.494 1929.8 273.618 1934.86 277.352Z" fill="white"/>
</mask>
<g mask="url(#mask11_1_231)">
<path d="M1934.86 277.352L2132.8 424.08C2137.86 427.847 2144.47 425.849 2147.5 419.592C2150.57 413.368 2148.94 405.276 2143.85 401.509L1945.94 254.782C1940.85 251.014 1934.27 253.012 1931.21 259.269C1928.15 265.494 1929.8 273.618 1934.86 277.352Z" fill="url(#paint11_linear_1_231)"/>
</g>
<mask id="mask12_1_231" style="mask-type:luminance" maskUnits="userSpaceOnUse" x="2948" y="103" width="224" height="28">
<path d="M2959.9 130.395H3160.63C3166.66 130.395 3171.53 124.368 3171.53 116.964C3171.53 109.561 3166.66 103.533 3160.63 103.533H2959.9C2953.88 103.533 2948.98 109.561 2948.98 116.964C2948.98 124.368 2953.88 130.395 2959.9 130.395Z" fill="white"/>
</mask>
<g mask="url(#mask12_1_231)">
<path d="M2959.92 130.384H3160.64C3166.67 130.384 3171.55 124.354 3171.55 116.951C3171.55 109.562 3166.67 103.532 3160.64 103.532H2959.92C2953.89 103.532 2948.99 109.562 2948.99 116.951C2948.99 124.354 2953.89 130.384 2959.92 130.384Z" fill="url(#paint12_linear_1_231)"/>
</g>
<mask id="mask13_1_231" style="mask-type:luminance" maskUnits="userSpaceOnUse" x="2948" y="251" width="224" height="28">
<path d="M2959.9 278.171H3160.63C3166.66 278.171 3171.53 272.176 3171.53 264.773C3171.53 257.337 3166.66 251.342 3160.63 251.342H2959.9C2953.88 251.342 2948.98 257.337 2948.98 264.773C2948.98 272.176 2953.88 278.171 2959.9 278.171Z" fill="white"/>
</mask>
<g mask="url(#mask13_1_231)">
<path d="M2959.92 278.16H3160.64C3166.67 278.16 3171.55 272.167 3171.55 264.761C3171.55 257.327 3166.67 251.331 3160.64 251.331H2959.92C2953.89 251.331 2948.99 257.327 2948.99 264.761C2948.99 272.167 2953.89 278.16 2959.92 278.16Z" fill="url(#paint13_linear_1_231)"/>
</g>
<mask id="mask14_1_231" style="mask-type:luminance" maskUnits="userSpaceOnUse" x="2948" y="399" width="224" height="27">
<path d="M2959.9 425.98H3160.63C3166.66 425.98 3171.53 419.985 3171.53 412.581C3171.53 405.145 3166.66 399.15 3160.63 399.15H2959.9C2953.88 399.15 2948.98 405.145 2948.98 412.581C2948.98 419.985 2953.88 425.98 2959.9 425.98Z" fill="white"/>
</mask>
<g mask="url(#mask14_1_231)">
<path d="M2959.92 425.969H3160.64C3166.67 425.969 3171.55 419.975 3171.55 412.573C3171.55 405.136 3166.67 399.139 3160.64 399.139H2959.92C2953.89 399.139 2948.99 405.136 2948.99 412.573C2948.99 419.975 2953.89 425.969 2959.92 425.969Z" fill="url(#paint14_linear_1_231)"/>
</g>
<defs>
<linearGradient id="paint0_linear_1_231" x1="-254.201" y1="261.92" x2="582.637" y2="69.2895" gradientUnits="userSpaceOnUse">
<stop stop-color="#7852AE"/>
<stop offset="1" stop-color="#4BC08D"/>
</linearGradient>
<linearGradient id="paint1_linear_1_231" x1="-231.629" y1="359.973" x2="605.109" y2="167.365" gradientUnits="userSpaceOnUse">
<stop stop-color="#7852AE"/>
<stop offset="1" stop-color="#4BC08D"/>
</linearGradient>
<linearGradient id="paint2_linear_1_231" x1="-248.329" y1="287.427" x2="588.409" y2="94.8187" gradientUnits="userSpaceOnUse">
<stop stop-color="#7852AE"/>
<stop offset="1" stop-color="#4BC08D"/>
</linearGradient>
<linearGradient id="paint3_linear_1_231" x1="630.257" y1="259.99" x2="3520.73" y2="259.99" gradientUnits="userSpaceOnUse">
<stop stop-color="#7852AE"/>
<stop offset="1" stop-color="#4BC08D"/>
</linearGradient>
<linearGradient id="paint4_linear_1_231" x1="630.255" y1="259.99" x2="3520.74" y2="259.99" gradientUnits="userSpaceOnUse">
<stop stop-color="#7852AE"/>
<stop offset="1" stop-color="#4BC08D"/>
</linearGradient>
<linearGradient id="paint5_linear_1_231" x1="630.257" y1="259.99" x2="3520.73" y2="259.99" gradientUnits="userSpaceOnUse">
<stop stop-color="#7852AE"/>
<stop offset="1" stop-color="#4BC08D"/>
</linearGradient>
<linearGradient id="paint6_linear_1_231" x1="630.257" y1="259.99" x2="3520.73" y2="259.99" gradientUnits="userSpaceOnUse">
<stop stop-color="#7852AE"/>
<stop offset="1" stop-color="#4BC08D"/>
</linearGradient>
<linearGradient id="paint7_linear_1_231" x1="630.257" y1="259.99" x2="3520.73" y2="259.99" gradientUnits="userSpaceOnUse">
<stop stop-color="#7852AE"/>
<stop offset="1" stop-color="#4BC08D"/>
</linearGradient>
<linearGradient id="paint8_linear_1_231" x1="630.257" y1="259.99" x2="3520.73" y2="259.99" gradientUnits="userSpaceOnUse">
<stop stop-color="#7852AE"/>
<stop offset="1" stop-color="#4BC08D"/>
</linearGradient>
<linearGradient id="paint9_linear_1_231" x1="630.248" y1="259.892" x2="3520.74" y2="259.892" gradientUnits="userSpaceOnUse">
<stop stop-color="#7852AE"/>
<stop offset="1" stop-color="#4BC08D"/>
</linearGradient>
<linearGradient id="paint10_linear_1_231" x1="630.257" y1="190.77" x2="3520.73" y2="190.77" gradientUnits="userSpaceOnUse">
<stop stop-color="#7852AE"/>
<stop offset="1" stop-color="#4BC08D"/>
</linearGradient>
<linearGradient id="paint11_linear_1_231" x1="630.256" y1="339.431" x2="3520.73" y2="339.431" gradientUnits="userSpaceOnUse">
<stop stop-color="#7852AE"/>
<stop offset="1" stop-color="#4BC08D"/>
</linearGradient>
<linearGradient id="paint12_linear_1_231" x1="696.933" y1="1.31793" x2="3686.26" y2="1.31793" gradientUnits="userSpaceOnUse">
<stop stop-color="#7852AE"/>
<stop offset="1" stop-color="#4BC08D"/>
</linearGradient>
<linearGradient id="paint13_linear_1_231" x1="696.933" y1="154.183" x2="3686.26" y2="154.183" gradientUnits="userSpaceOnUse">
<stop stop-color="#7852AE"/>
<stop offset="1" stop-color="#4BC08D"/>
</linearGradient>
<linearGradient id="paint14_linear_1_231" x1="696.933" y1="307.045" x2="3686.26" y2="307.045" gradientUnits="userSpaceOnUse">
<stop stop-color="#7852AE"/>
<stop offset="1" stop-color="#4BC08D"/>
</linearGradient>
</defs>
</svg>
