<svg width="300" height="300" viewBox="0 0 300 300" fill="none" xmlns="http://www.w3.org/2000/svg">
<rect width="300" height="300" fill="#1E1E1E"/>
<mask id="mask0_7_52" style="mask-type:luminance" maskUnits="userSpaceOnUse" x="102" y="65" width="101" height="101">
<path d="M202.594 115.056C202.594 142.705 180.186 165.116 152.539 165.116C124.892 165.116 102.483 142.705 102.483 115.056C102.483 87.415 124.892 65.0001 152.539 65.0001C153.973 65.0001 155.396 65.0648 156.799 65.185C135.286 67.1366 118.455 84.7929 118.455 106.274C118.455 129.068 137.401 147.547 160.778 147.547C181.825 147.547 199.286 132.559 202.548 112.933C202.579 113.631 202.594 114.343 202.594 115.056Z" fill="white"/>
</mask>
<g mask="url(#mask0_7_52)">
<path d="M202.594 115.056C202.594 142.705 180.186 165.116 152.539 165.116C124.892 165.116 102.483 142.705 102.483 115.056C102.483 87.415 124.892 65.0001 152.539 65.0001C153.973 65.0001 155.396 65.0648 156.799 65.185C135.286 67.1366 118.455 84.7929 118.455 106.274C118.455 129.068 137.401 147.547 160.778 147.547C181.825 147.547 199.286 132.559 202.548 112.933C202.579 113.631 202.594 114.343 202.594 115.056Z" fill="url(#paint0_linear_7_52)"/>
</g>
<mask id="mask1_7_52" style="mask-type:luminance" maskUnits="userSpaceOnUse" x="64" y="75" width="165" height="160">
<path d="M228.024 151.626C228.024 197.445 191.303 234.598 146.01 234.598C100.716 234.598 64 197.445 64 151.626C64 138.502 67.0115 126.094 72.3675 115.06C71.026 139.204 84.6881 153.614 84.6881 153.614C68.655 102.463 111.982 76.2652 113.129 75.5854C113.139 75.5808 113.144 75.5761 113.15 75.5761C102.294 85.9859 95.5339 100.636 95.5339 116.859C95.5339 148.44 121.133 174.036 152.713 174.036C184.298 174.036 209.897 148.44 209.897 116.859C209.897 108.822 208.237 101.168 205.242 94.2313C219.349 109.136 228.024 129.354 228.024 151.626Z" fill="white"/>
</mask>
<g mask="url(#mask1_7_52)">
<path d="M228.024 151.626C228.024 197.445 191.303 234.598 146.01 234.598C100.716 234.598 64 197.445 64 151.626C64 138.502 67.0115 126.094 72.3675 115.06C71.026 139.204 84.6881 153.614 84.6881 153.614C68.655 102.463 111.982 76.2652 113.129 75.5854C113.139 75.5808 113.144 75.5761 113.15 75.5761C102.294 85.9859 95.5339 100.636 95.5339 116.859C95.5339 148.44 121.133 174.036 152.713 174.036C184.298 174.036 209.897 148.44 209.897 116.859C209.897 108.822 208.237 101.168 205.242 94.2313C219.349 109.136 228.024 129.354 228.024 151.626Z" fill="url(#paint1_linear_7_52)"/>
</g>
<mask id="mask2_7_52" style="mask-type:luminance" maskUnits="userSpaceOnUse" x="133" y="95" width="65" height="46">
<path d="M197.668 107.448C197.668 125.553 182.562 140.231 163.932 140.231C150.552 140.231 138.994 132.661 133.535 121.687C141.518 126.755 152.344 128.86 163.563 126.714C181.773 123.227 194.872 109.71 195.215 95.161C196.797 98.9577 197.668 103.106 197.668 107.448Z" fill="white"/>
</mask>
<g mask="url(#mask2_7_52)">
<path d="M197.668 107.448C197.668 125.553 182.562 140.231 163.932 140.231C150.552 140.231 138.994 132.661 133.535 121.687C141.518 126.755 152.344 128.86 163.563 126.714C181.773 123.227 194.872 109.71 195.215 95.161C196.797 98.9577 197.668 103.106 197.668 107.448Z" fill="url(#paint2_linear_7_52)"/>
</g>
<defs>
<linearGradient id="paint0_linear_7_52" x1="-24.1691" y1="155.737" x2="266.077" y2="88.9258" gradientUnits="userSpaceOnUse">
<stop stop-color="#7852AE"/>
<stop offset="1" stop-color="#4BC08D"/>
</linearGradient>
<linearGradient id="paint1_linear_7_52" x1="-16.3403" y1="189.745" x2="273.871" y2="122.942" gradientUnits="userSpaceOnUse">
<stop stop-color="#7852AE"/>
<stop offset="1" stop-color="#4BC08D"/>
</linearGradient>
<linearGradient id="paint2_linear_7_52" x1="-22.1325" y1="164.584" x2="268.079" y2="97.7802" gradientUnits="userSpaceOnUse">
<stop stop-color="#7852AE"/>
<stop offset="1" stop-color="#4BC08D"/>
</linearGradient>
</defs>
</svg>
